<?xml version="1.0" encoding="UTF-8" standalone="no"?><!DOCTYPE svg PUBLIC "-//W3C//DTD SVG 1.1//EN" "http://www.w3.org/Graphics/SVG/1.1/DTD/svg11.dtd"><svg width="100%" height="100%" viewBox="0 0 190 145" version="1.1" xmlns="http://www.w3.org/2000/svg" xmlns:xlink="http://www.w3.org/1999/xlink" xml:space="preserve" xmlns:serif="http://www.serif.com/" style="fill-rule:evenodd;clip-rule:evenodd;stroke-linejoin:round;stroke-miterlimit:2;"><g><path d="M17.029,12.938l4.73,91.524l56.996,35.475l107.886,-31.824l0.573,-4.736l-67.544,-10.265l-6.385,-59.599l-96.256,-20.576Z" style="fill:#f1f1f1;"/><g><path d="M14.477,9.033c-1.104,0.519 -1.962,1.438 -2.423,2.246c-0.242,0.413 -0.59,1.099 -0.719,1.483c-0.063,0.19 -0.121,1.709 -0.121,1.709l5.203,92.943c0,0 56.344,33.665 56.824,33.864c1.922,0.802 4.011,1.164 6.014,1.122c1.003,-0.019 3.915,-0.546 4.397,-0.69c0.241,-0.072 94.619,-28.761 103.098,-31.445c-0,0 1.755,-1.353 2.177,-2.042c0.419,-0.68 0.725,-1.57 0.726,-2.479c0.013,-0.911 -0.259,-1.75 -0.625,-2.422c-0.184,-0.34 -0.395,-0.646 -0.621,-0.929c-0.114,-0.141 -1.763,-1.268 -1.763,-1.268c0,-0 -39.128,-4.597 -44.027,-5.117l-14.695,-1.581l14.531,2.704c4.842,0.906 42.939,7.616 42.939,7.616c0.082,0.121 0.334,0.777 0.317,0.902c-0.018,0.124 -0.368,0.65 -0.493,0.769c-8.482,2.163 -104.259,27.874 -104.516,27.918c-0.511,0.094 -1.031,0.14 -1.532,0.137c-1.008,-0.004 -1.942,-0.202 -2.795,-0.58c-0.214,-0.094 -51.345,-31.643 -51.345,-31.643l-4.761,-84.229l87.63,17.985l6.528,52.396c-5.802,0.599 -57.193,6.324 -57.193,6.324c-6.629,0.788 -13.259,1.564 -19.883,2.399c6.672,-0.26 13.339,-0.58 20.007,-0.889l62.39,-3.434l-5.062,-57.806c0,-0 -0.421,-2.486 -0.881,-3.242c-0.447,-0.755 -1.187,-1.461 -1.997,-1.88c-0.405,-0.216 -1.959,-0.597 -2.011,-0.602l-82.158,-18.603c0,-0 -10.157,-2.197 -10.667,-2.197c-0.724,-0 -1.598,0.127 -2.493,0.561" style="fill:#cc2028;"/></g><g><path d="M75.471,61.302c-0,0 -4.403,-9.969 -11.319,-16.719c-7.236,-7.062 -11.336,-3.862 -13.434,-3.652c-2.125,0.211 -8.929,3.995 -8.929,3.995c15.94,2.341 28.98,36.744 28.98,36.744c6.791,-6.9 11.813,-8.406 11.813,-8.406c19.638,-40.719 42.341,-60.021 42.341,-60.021l0.758,-5.07c-23.15,12.604 -50.21,53.129 -50.21,53.129"/></g></g></svg>